HIERARCHY
ROOT Hips
{
	OFFSET	0.00	0.00	0.00
	CHANNELS 6 Xposition Yposition Zposition Zrotation Xrotation Yrotation
	JOINT LeftUpperLeg
	{
		OFFSET	 0.100000	-0.066564	-0.000554
		CHANNELS 3 Zrotation Xrotation Yrotation
		JOINT LeftLowerLeg
		{
			OFFSET	 0.002447	-0.463436	-0.005172
			CHANNELS 3 Zrotation Xrotation Yrotation
			JOINT LeftFoot
			{
				OFFSET	-0.002447	-0.420480	-0.020576
				CHANNELS 3 Zrotation Xrotation Yrotation
				JOINT LeftToes
				{
					OFFSET	 0.003734	-0.104922	 0.126407
					CHANNELS 3 Zrotation Xrotation Yrotation
					End Site
					{
						OFFSET	 0.000000	 0.000000	 0.059955
					}
				}
			}
		}
	}
	JOINT RightUpperLeg
	{
		OFFSET	-0.100000	-0.066564	-0.000554
		CHANNELS 3 Zrotation Xrotation Yrotation
		JOINT RightLowerLeg
		{
			OFFSET	-0.002447	-0.463436	-0.005146
			CHANNELS 3 Zrotation Xrotation Yrotation
			JOINT RightFoot
			{
				OFFSET	 0.002447	-0.420479	-0.020602
				CHANNELS 3 Zrotation Xrotation Yrotation
				JOINT RightToes
				{
					OFFSET	-0.003734	-0.104922	 0.126407
					CHANNELS 3 Zrotation Xrotation Yrotation
					End Site
					{
						OFFSET	-0.000000	 0.000000	 0.059955
					}
				}
			}
		}
	}
	JOINT Spine
	{
		OFFSET	 0.000000	 0.099235	-0.012273
		CHANNELS 3 Zrotation Xrotation Yrotation
		JOINT Chest
		{
			OFFSET	-0.000001	 0.116455	-0.014223
			CHANNELS 3 Zrotation Xrotation Yrotation
			JOINT UpperChest
			{
				OFFSET	 0.000001	 0.133602	-0.016265
				CHANNELS 3 Zrotation Xrotation Yrotation
				JOINT LeftShoulder
				{
					OFFSET	 0.061058	 0.091105	 0.007056
					CHANNELS 3 Zrotation Xrotation Yrotation
					JOINT LeftUpperArm
					{
						OFFSET	 0.133942	-0.002659	-0.026009
						CHANNELS 3 Zrotation Xrotation Yrotation
						JOINT LeftLowerArm
						{
							OFFSET	 0.274047	 0.000000	 0.000000
							CHANNELS 3 Zrotation Xrotation Yrotation
							JOINT LeftHand
							{
								OFFSET	 0.276145	 0.000000	 0.000000
								CHANNELS 3 Zrotation Xrotation Yrotation
								End Site
								{
									OFFSET	 0.165687	 0.000000	 0.000000
								}
							}
						}
					}
				}
				JOINT Neck
				{
					OFFSET	 0.000000	 0.150325	 0.007929
					CHANNELS 3 Zrotation Xrotation Yrotation
					JOINT Head
					{
						OFFSET	 0.000000	 0.103218	 0.031424
						CHANNELS 3 Zrotation Xrotation Yrotation
						End Site
						{
							OFFSET	 0.000000	 0.061931	 0.018855
						}
					}
				}
				JOINT RightShoulder
				{
					OFFSET	-0.061057	 0.091105	 0.007056
					CHANNELS 3 Zrotation Xrotation Yrotation
					JOINT RightUpperArm
					{
						OFFSET	-0.133943	-0.002660	-0.026009
						CHANNELS 3 Zrotation Xrotation Yrotation
						JOINT RightLowerArm
						{
							OFFSET	-0.274047	 0.000000	 0.000000
							CHANNELS 3 Zrotation Xrotation Yrotation
							JOINT RightHand
							{
								OFFSET	-0.276145	 0.000000	 0.000000
								CHANNELS 3 Zrotation Xrotation Yrotation
								End Site
								{
									OFFSET	-0.165687	 0.000000	 0.000000
								}
							}
						}
					}
				}
			}
		}
	}
}
MOTION
Frames:    5
Frame Time: 0.03333334
-0.210410	 1.051030	-0.446550	 0.657403	 5.331163	 15.576760	-11.285830	-10.723070	 18.520380	 0.002163	 0.082817	 0.000526	-3.484751	-2.211533	-4.258658	-0.000574	 0.130783	 0.000435	-11.013120	-11.689510	-28.030690	 0.001284	 0.089183	 0.000228	 4.541998	 8.912269	-5.518407	 0.000247	 1.046005	 0.000649	 0.950526	 0.042246	-1.925690	-0.000000	 0.000000	 0.000000	 1.904753	 0.050677	-3.858783	 1.994905	-2.477217	 15.309030	-82.122260	-4.270356	 8.177749	-22.115090	 23.019190	-55.359630	 39.458640	 5.903614	-17.058480	-1.228216	-1.302090	 4.857434	-1.788451	-1.670115	 4.871885	-2.459251	 7.184853	-18.947760	 86.661380	 3.148360	 12.044830	 18.114660	 27.448680	 78.026080	-44.474350	-5.784048	 27.022070
-0.215120	 1.051520	-0.452210	 0.482627	 4.950145	 15.981270	-10.896230	-10.835990	 18.890820	 0.002516	 0.082823	-0.000009	-3.442478	-1.225214	-5.078221	-0.000110	 0.127253	-0.000060	-10.614920	-11.682390	-27.459090	 0.002805	 0.079531	-0.000501	 4.419481	 9.087305	-6.364405	 0.000090	 1.050828	-0.000099	 1.155967	 0.237245	-2.008852	-0.000000	 0.000000	 0.000000	 2.324548	 0.434996	-4.028332	 1.822813	-2.842367	 14.990060	-82.143590	-3.914802	 8.445822	-22.372590	 22.969760	-55.461490	 40.000350	 5.782423	-18.611410	-1.371498	-1.581974	 4.719905	-1.760440	-1.999729	 4.875584	-2.497009	 7.193215	-19.210500	 86.748740	 3.560364	 12.813870	 18.034660	 27.274680	 77.744190	-44.471170	-6.161871	 27.204610
-0.219360	 1.051930	-0.457380	 0.404675	 4.479832	 16.408670	-10.579380	-10.802430	 19.507770	 0.001270	 0.066333	 0.000565	-3.455959	-0.105384	-5.974104	-0.000191	 0.117941	-0.000108	-10.329500	-11.516930	-27.183050	 0.002479	 0.080181	 0.001020	 4.514838	 9.270628	-7.075119	 0.000086	 1.018960	-0.000262	 1.314308	 0.479309	-2.122789	-0.000000	 0.000000	 0.000000	 2.650205	 0.910606	-4.264693	 1.714917	-3.175026	 14.837970	-82.089960	-3.788063	 8.599286	-22.597800	 23.137850	-55.480360	 40.001330	 5.711243	-18.788200	-1.472627	-1.893608	 4.778602	-1.755913	-2.397011	 4.998090	-2.521466	 7.199365	-19.277090	 86.678880	 3.969358	 13.650290	 18.058070	 27.164330	 77.649140	-44.558020	-6.487709	 27.552600
-0.223160	 1.052340	-0.461820	 0.416001	 3.847260	 16.894990	-10.251160	-10.536630	 22.572480	 0.002360	 0.092557	 0.000420	-4.115456	 1.065290	-9.128955	-0.000735	 0.082570	-0.000574	-10.098730	-11.107090	-26.932250	 0.002154	 0.079298	 0.000873	 4.632785	 9.371915	-7.775959	 0.000272	 1.021491	-0.000053	 1.433404	 0.764506	-2.240359	-0.000000	 0.000000	 0.000000	 2.901345	 1.472800	-4.510070	 1.571692	-3.467486	 14.724380	-81.963420	-3.692324	 8.617260	-22.743340	 23.324130	-55.529390	 40.502770	 6.046593	-19.993830	-1.526216	-2.242793	 4.915898	-1.723339	-2.830078	 5.140102	-2.332278	 7.283676	-19.463050	 86.308650	 4.472285	 14.629770	 18.130720	 27.250780	 77.764530	-44.616500	-6.699595	 28.122990
-0.227070	 1.052410	-0.465390	 0.234451	 3.571041	 17.233020	-9.741694	-10.565810	 26.468850	 0.002282	 0.067474	-0.000910	-5.669813	 2.156076	-12.794110	-0.000270	 0.011166	-0.000230	-9.723577	-11.095170	-27.118840	 0.002205	 0.079301	 0.000688	 4.429279	 9.461804	-7.780679	-0.000161	 1.064699	 0.000980	 1.534764	 0.750184	-2.214349	-0.000000	 0.000000	 0.000000	 3.103129	 1.441887	-4.456625	 1.753478	-3.873041	 14.312360	-82.064480	-3.991278	 8.556033	-22.835150	 23.406700	-55.505820	 40.665690	 6.445292	-20.645700	-1.516074	-2.996448	 5.267298	-1.721554	-2.980401	 5.210278	-1.936057	 7.071479	-19.567740	 85.745930	 5.039730	 15.594970	 18.245390	 27.409000	 77.979800	-44.321600	-6.917899	 28.693450
